<?xml version="1.0" encoding="utf-8"?>
<!-- Generator: Adobe Illustrator 16.0.4, SVG Export Plug-In . SVG Version: 6.00 Build 0)  -->
<!DOCTYPE svg PUBLIC "-//W3C//DTD SVG 1.1//EN" "http://www.w3.org/Graphics/SVG/1.1/DTD/svg11.dtd">
<svg version="1.1" id="Ebene_1" xmlns="http://www.w3.org/2000/svg" xmlns:xlink="http://www.w3.org/1999/xlink" x="0px" y="0px"
	 width="595.28px" height="841.89px" viewBox="0 0 595.28 841.89" enable-background="new 0 0 595.28 841.89" xml:space="preserve">
<g>
	<path fill-rule="evenodd" clip-rule="evenodd" d="M479.244,750.791c-14.066-23.701-28.202-47.359-42.187-71.104
		c-15.329-26.037-30.441-52.195-45.788-78.218c-14.456-24.516-29.14-48.888-43.636-73.374
		c-16.528-27.918-32.989-55.879-49.417-83.855c-9.854-16.781-19.578-33.634-29.394-50.435c-1.098-1.878-2.415-3.626-4.01-5.998
		c-4.729,3.622-9.169,6.933-13.507,10.371c-5.657,4.482-11.095,9.249-16.895,13.534c-3.366,2.487-4.312,5.792-4.813,9.506
		c-2.083,15.468-4.062,30.958-6.248,46.413c-2.085,14.741-4.43,29.453-6.571,44.194c-3.771,25.957-7.44,51.943-11.212,77.9
		c-4.664,32.092-9.458,64.162-14.058,96.261c-2.55,17.776-4.793,35.603-7.243,53.399c-0.342,2.494-1.076,4.931-1.627,7.396
		c-0.484,0.028-0.969,0.058-1.456,0.086c-0.773-1.275-1.672-2.494-2.299-3.842c-4.163-8.945-8.324-17.891-12.378-26.887
		c-5.987-13.285-11.82-26.636-17.85-39.898c-2.437-5.363-5.291-10.539-7.829-15.852c-5.073-10.625-10.185-21.236-15.04-31.962
		c-4.898-10.819-9.375-21.834-14.285-32.646c-3.229-7.107-7.028-13.956-10.353-21.027c-8.083-17.177-16.048-34.412-24.038-51.641
		c-3.278-7.063-6.5-14.149-9.746-21.229c0-0.591,0-1.175,0-1.766c7.924-6.314,15.938-12.521,23.755-18.966
		c18.403-15.173,36.736-30.434,55.052-45.708c13.912-11.605,27.826-23.207,41.545-35.033c1.8-1.551,3.159-4.323,3.528-6.714
		c2.514-16.286,4.704-32.62,7.008-48.938c3.995-28.271,7.953-56.548,12.009-84.811c4.185-29.159,8.454-58.305,12.712-87.452
		c2.173-14.871,4.28-29.752,6.644-44.593c1.83-11.481,4.014-22.906,6.039-34.355c0.591,0,1.182,0,1.771,0
		c6.898,12.313,13.755,24.652,20.708,36.939c6.895,12.189,13.833,24.355,20.848,36.476c11,19.001,22.197,37.889,33.092,56.95
		c8.902,15.572,17.383,31.383,26.241,46.98c5.525,9.731,11.271,19.347,17.192,28.846c2.328,3.736,2.462,6.419-1.063,9.526
		c-13.497,11.888-26.814,23.982-40.197,36.002c-4.059,3.644-8.088,7.324-12.175,10.935c-1.87,1.656-2.569,3.375-1.377,5.83
		c1.283,2.646,2.112,5.509,3.355,8.176c16.691,35.792,33.411,71.57,50.146,107.338c3.312,7.078,6.729,14.113,10.105,21.163
		c6.935,14.475,14.024,28.884,20.768,43.445c5.37,11.591,10.171,23.441,15.502,35.047c4.793,10.445,9.987,20.702,14.961,31.061
		c6.513,13.56,13.087,27.097,19.44,40.728c5.417,11.613,10.467,23.398,15.858,35.025c3.161,6.812,6.779,13.415,9.998,20.205
		c6.423,13.552,12.759,27.14,18.998,40.778c0.797,1.744,0.811,3.849,1.186,5.788C480.427,750.791,479.836,750.791,479.244,750.791z
		 M159.472,604.425c0.519-0.05,1.038-0.101,1.557-0.151c7.196-49.63,14.393-99.267,21.589-148.896
		c-0.407-0.195-0.814-0.383-1.222-0.577c-1.015,0.714-2.078,1.362-3.039,2.141c-7.448,6.005-14.858,12.06-22.319,18.058
		c-12.049,9.681-24.062,19.412-36.233,28.935c-3.566,2.789-4.463,5.384-2.342,9.658c4.108,8.29,7.52,16.919,11.468,25.295
		c7.351,15.584,14.945,31.054,22.303,46.638C154.167,591.738,156.737,598.117,159.472,604.425z M259.706,213.576
		c-7.01,48.333-13.924,96.016-20.967,144.571c2.366-1.759,4.06-2.899,5.622-4.201c11.999-9.995,23.957-20.036,35.959-30.026
		c8.263-6.88,16.621-13.646,24.828-20.591c1.877-1.587,4.75-3.055,2.825-6.482c-7.99-14.242-15.808-28.585-23.989-42.717
		C276.253,240.775,268.144,227.636,259.706,213.576z"/>
</g>
</svg>
